<svg version="1.1" viewBox="0.0 0.0 100.0 100.0" fill="none" stroke="none" stroke-linecap="square" stroke-miterlimit="10" xmlns:xlink="http://www.w3.org/1999/xlink" xmlns="http://www.w3.org/2000/svg"><clipPath id="p.0"><path d="m0 0l100.0 0l0 100.0l-100.0 0l0 -100.0z" clip-rule="nonzero"/></clipPath><g clip-path="url(#p.0)"><path fill="#000000" fill-opacity="0.0" d="m0 0l100.0 0l0 100.0l-100.0 0z" fill-rule="evenodd"/><path fill="#980000" d="m243.45145 14.286089l370.23624 0l0 223.81102l-370.23624 0z" fill-rule="evenodd"/><path stroke="#000000" stroke-width="1.0" stroke-linejoin="round" stroke-linecap="butt" d="m243.45145 14.286089l370.23624 0l0 223.81102l-370.23624 0z" fill-rule="evenodd"/><path fill="#000000" d="m-8.225721 -172.02362l347.49606 0l0 160.66142l-347.49606 0z" fill-rule="evenodd"/><path stroke="#000000" stroke-width="1.0" stroke-linejoin="round" stroke-linecap="butt" d="m-8.225721 -172.02362l347.49606 0l0 160.66142l-347.49606 0z" fill-rule="evenodd"/><path fill="#ffffff" d="m397.52982 125.64432l0 -10.074097l12.686584 0l-25.746277 -26.118027l-20.149261 20.521309l-36.940308 -37.684586l6.343292 -7.4622955l30.597015 30.595406l20.149261 -19.775078l33.208954 32.83409l0 -13.059013l9.701508 0l0 30.22229l-29.850769 0z" fill-rule="evenodd"/><path fill="#ffffff" d="m415.8418 68.95103l-8.0 -7.4285736l11.428558 -10.857155l-80.0 0l0 -10.857155l80.0 0l-10.857147 -10.857153l7.428589 -7.4285793l23.428558 24.000023l-23.428558 23.428593z" fill-rule="evenodd"/><path fill="#ffffff" d="m346.32678 201.96085l-7.056427 -7.0558777l36.89514 -37.09378l19.959686 19.75647l26.008057 -25.602768l-12.903229 0l0 -9.878235l30.040314 0l0 30.037888l-10.080658 0l0 -13.103775l-33.064484 32.860245l-19.959686 -19.75647l-29.838715 29.836304z" fill-rule="evenodd"/><path fill="#1e5a7c" d="m52.02416 -114.30417c-0.4931755 0 -0.82195663 -0.1646576 -0.9863472 -0.3293152c-0.32878113 -0.3293152 -0.4931717 -0.6586304 -0.4931717 -0.9879532c0 -2.7991943 0 -2.7991943 0 -2.7991943c18.082993 0 18.082993 0 18.082993 0c0 -12.514046 0 -12.514046 0 -12.514046c2.7946396 0 2.7946396 0 2.7946396 0c0.4931717 0 0.8219528 0 0.9863434 0.3293152c0.32878113 0.3293152 0.4931717 0.6586304 0.4931717 0.98794556c0 20.911644 0 20.911644 0 20.911644c-5.589287 -5.5983963 -5.589287 -5.5983963 -5.589287 -5.5983963l-15.2883415 0zm-7.0688057 -1.3172684c0 -19.594368 0 -19.594368 0 -19.594368c0 -0.3293152 0.16439056 -0.6586304 0.4931717 -0.98794556c0.32878113 -0.1646576 0.65756226 -0.3293152 0.9863434 -0.3293152c18.082993 0 18.082993 0 18.082993 0c0.32878113 0 0.65756226 0.1646576 0.9863434 0.3293152c0.32878113 0.3293152 0.4931717 0.6586304 0.4931717 0.98794556c0 12.514053 0 12.514053 0 12.514053c0 0.4939804 -0.16439056 0.8232956 -0.4931717 0.9879532c-0.32878113 0.3293152 -0.65756226 0.49397278 -0.9863434 0.49397278c-13.973221 0 -13.973221 0 -13.973221 0l-5.589287 5.5983887z" fill-rule="evenodd"/><path fill="#1e5a7c" d="m156.05074 -105.21186l0 -29.643654l2.4165955 2.0943909l2.0943756 -2.0943909l2.2554932 2.0943909l2.255478 -2.0943909l2.255478 2.0943909l2.2554932 -2.0943909l2.255478 2.0943909l2.0943756 -2.0943909l2.2554932 2.0943909l2.255478 -2.0943909l2.2554932 2.0943909l2.255478 -2.0943909l0 29.643654l-2.255478 -2.0943909l-2.2554932 2.0943909l-2.255478 -2.0943909l-2.2554932 2.0943909l-2.0943756 -2.0943909l-2.255478 2.0943909l-2.2554932 -2.0943909l-2.255478 2.0943909l-2.255478 -2.0943909l-2.2554932 2.0943909l-2.0943756 -2.0943909l-2.4165955 2.0943909zm4.510971 -7.410919l17.882767 0l0 -2.8999176l-17.882767 0l0 2.8999176zm0 -5.960945l17.882767 0l0 -2.8999252l-17.882767 0l0 2.8999252zm0 -5.9609528l17.882767 0l0 -3.0610352l-17.882767 0l0 3.0610352z" fill-rule="evenodd"/><path fill="#1e5a7c" d="m90.20616 -105.21212c-1.3588257 0 -2.4264755 -0.39151764 -3.3000107 -1.3703232c-0.9705887 -0.8809204 -1.3588257 -1.9576035 -1.3588257 -3.3279343c0 -4.69825 0 -4.69825 0 -4.69825c4.6588364 0 4.6588364 0 4.6588364 0c0 -21.925186 0 -21.925186 0 -21.925186c2.3294144 2.349121 2.3294144 2.349121 2.3294144 2.349121c2.329422 -2.349121 2.329422 -2.349121 2.329422 -2.349121c2.3294144 2.349121 2.3294144 2.349121 2.3294144 2.349121c2.329422 -2.349121 2.329422 -2.349121 2.329422 -2.349121c2.3294144 2.349121 2.3294144 2.349121 2.3294144 2.349121c2.3294144 -2.349121 2.3294144 -2.349121 2.3294144 -2.349121c2.329422 2.349121 2.329422 2.349121 2.329422 2.349121c2.3294144 -2.349121 2.3294144 -2.349121 2.3294144 -2.349121c2.329422 2.349121 2.329422 2.349121 2.329422 2.349121c2.3294144 -2.349121 2.3294144 -2.349121 2.3294144 -2.349121c0 26.623436 0 26.623436 0 26.623436c0 1.3703308 -0.48529816 2.4470139 -1.3588257 3.3279343c-0.9705887 0.97880554 -2.0382385 1.3703232 -3.3000107 1.3703232l-18.635338 0zm18.635338 -3.1321716c0.388237 0 0.776474 -0.0978775 1.0676498 -0.39151764c0.29117584 -0.29364014 0.48529816 -0.6851654 0.48529816 -1.1745682c0 -21.925194 0 -21.925194 0 -21.925194c-17.082397 0 -17.082397 0 -17.082397 0c0 17.226944 0 17.226944 0 17.226944c13.976509 0 13.976509 0 13.976509 0c0 4.69825 0 4.69825 0 4.69825c0 0.48940277 0.09705353 0.88092804 0.38822937 1.1745682c0.29118347 0.29364014 0.6794205 0.39151764 1.164711 0.39151764zm-13.976501 -17.226936c0 -3.1321716 0 -3.1321716 0 -3.1321716c9.317665 0 9.317665 0 9.317665 0c0 3.1321716 0 3.1321716 0 3.1321716l-9.317665 0zm0 4.6982574c0 -3.1321716 0 -3.1321716 0 -3.1321716c9.317665 0 9.317665 0 9.317665 0c0 3.1321716 0 3.1321716 0 3.1321716l-9.317665 0zm12.423561 -4.6982574c-0.48529816 0 -0.87353516 -0.0978775 -1.164711 -0.39151764c-0.29117584 -0.29364014 -0.388237 -0.6851654 -0.388237 -1.1745605c0 -0.39152527 0.09706116 -0.7830429 0.388237 -1.076683c0.29117584 -0.29364014 0.67941284 -0.4894104 1.164711 -0.4894104c0.38822937 0 0.77646637 0.19577026 1.0676498 0.4894104c0.29117584 0.29364014 0.48529053 0.6851578 0.48529053 1.076683c0 0.48939514 -0.19411469 0.8809204 -0.48529053 1.1745605c-0.29118347 0.29364014 -0.6794205 0.39151764 -1.0676498 0.39151764zm0 4.6982574c-0.48529816 0 -0.87353516 -0.0978775 -1.164711 -0.39151764c-0.29117584 -0.29364014 -0.388237 -0.6851654 -0.388237 -1.1745682c0 -0.39151764 0.09706116 -0.7830429 0.388237 -1.076683c0.29117584 -0.29364014 0.67941284 -0.48940277 1.164711 -0.48940277c0.38822937 0 0.77646637 0.19576263 1.0676498 0.48940277c0.29117584 0.29364014 0.48529053 0.6851654 0.48529053 1.076683c0 0.48940277 -0.19411469 0.88092804 -0.48529053 1.1745682c-0.29118347 0.29364014 -0.6794205 0.39151764 -1.0676498 0.39151764z" fill-rule="evenodd"/><path fill="#1e5a7c" d="m131.58075 -109.24692c0 -3.25811 0 -3.25811 0 -3.25811c-1.2225037 -0.2715149 -2.4450073 -0.8145294 -3.3958435 -1.6290588c-0.9508362 -0.95028687 -1.6300049 -2.0363235 -2.037506 -3.6653824c2.7166748 -1.0860367 2.7166748 -1.0860367 2.7166748 -1.0860367c0.40750122 1.2217865 0.9508362 2.1720734 1.6300049 2.7150955c0.81500244 0.678772 1.7658386 0.95027924 2.8525085 0.95027924c1.0866699 0 1.9016724 -0.27150726 2.580841 -0.678772c0.81500244 -0.4072647 1.0866852 -1.2217941 1.0866852 -2.172081c0 -0.8145218 -0.27168274 -1.4933014 -0.8150177 -2.036316c-0.54333496 -0.54302216 -1.7658386 -1.0860443 -3.8033447 -1.7648163c-2.037506 -0.678772 -3.5316772 -1.3575516 -4.3466797 -2.3078308c-0.81500244 -0.95028687 -1.2225037 -2.0363235 -1.2225037 -3.3938751c0 -1.6290588 0.54333496 -2.8508453 1.6300049 -3.8011322c1.0866699 -0.8145294 2.037506 -1.357544 3.124176 -1.4933014c0 -3.1223602 0 -3.1223602 0 -3.1223602c2.9883423 0 2.9883423 0 2.9883423 0c0 3.1223602 0 3.1223602 0 3.1223602c1.2225037 0.27149963 2.3091736 0.678772 3.1241913 1.357544c0.81500244 0.678772 1.3583374 1.6290588 1.7658386 2.5793457c-2.8525238 1.2217941 -2.8525238 1.2217941 -2.8525238 1.2217941c-0.27166748 -0.81453705 -0.6791687 -1.3575516 -1.2225037 -1.7648239c-0.54333496 -0.40725708 -1.2225037 -0.678772 -2.1733398 -0.678772c-1.0866699 0 -1.9016724 0.2715149 -2.4450073 0.8145294c-0.6791687 0.40727234 -0.9508362 1.0860443 -0.9508362 1.7648163c0 0.8145294 0.40750122 1.493309 1.0866699 1.9005661c0.81500244 0.4072647 2.037506 0.95028687 3.9391785 1.493309c1.6300049 0.5430145 2.9883575 1.2217941 3.80336 2.3078308c0.9508362 1.0860367 1.3583374 2.3078308 1.3583374 3.8011322c0 1.7648163 -0.54333496 2.9866104 -1.4941711 3.9368973c-1.0866699 0.95027924 -2.4450226 1.4933014 -3.9391937 1.7648087c0 3.1223602 0 3.1223602 0 3.1223602l-2.9883423 0z" fill-rule="evenodd"/><path fill="#1e5a7c" d="m220.33235 -109.29263c5.058563 -5.0312576 5.058563 -5.0312576 5.058563 -5.0312576c-1.503891 -1.6317596 -1.503891 -1.6317596 -1.503891 -1.6317596c-3.5546722 3.5354767 -3.5546722 3.5354767 -3.5546722 3.5354767c-1.5039062 -1.495781 -1.5039062 -1.495781 -1.5039062 -1.495781c-1.6406097 1.6317596 -1.6406097 1.6317596 -1.6406097 1.6317596l3.144516 2.991562zm-16.953049 -16.72554c17.910065 0 17.910065 0 17.910065 0c0 -2.8555908 0 -2.8555908 0 -2.8555908c-17.910065 0 -17.910065 0 -17.910065 0l0 2.8555908zm17.910065 20.804947c-2.050766 0 -3.8280945 -0.6799011 -5.195282 -2.175682c-1.5039062 -1.3598022 -2.1874847 -3.1275406 -2.1874847 -5.167244c0 -2.0397034 0.6835785 -3.8074417 2.1874847 -5.3032227c1.3671875 -1.495781 3.144516 -2.175682 5.195282 -2.175682c2.1875 0 3.8281097 0.6799011 5.332016 2.175682c1.503891 1.495781 2.1874847 3.2635193 2.1874847 5.3032227c0 2.0397034 -0.68359375 3.8074417 -2.1874847 5.167244c-1.5039062 1.495781 -3.144516 2.175682 -5.332016 2.175682zm-22.28505 -1.495781c0 -25.156319 0 -25.156319 0 -25.156319c0 -0.8158722 0.2734375 -1.4957733 0.8203125 -2.1756744c0.546875 -0.5439148 1.3671875 -0.81588745 2.1874847 -0.81588745c20.781158 0 20.781158 0 20.781158 0c0.8203125 0 1.503891 0.27197266 2.1874847 0.81588745c0.546875 0.6799011 0.8203125 1.3598022 0.8203125 2.1756744c0 9.926552 0 9.926552 0 9.926552c-0.68359375 -0.40794373 -1.3671875 -0.6799011 -2.1874847 -0.8158798c-0.68359375 -0.1359787 -1.5039062 -0.27196503 -2.3242188 -0.27196503c-17.910065 0 -17.910065 0 -17.910065 0c0 2.991562 0 2.991562 0 2.991562c10.664017 0 10.664017 0 10.664017 0c-0.41015625 0.40794373 -0.8203125 0.95186615 -1.2304688 1.3598022c-0.2734375 0.5439224 -0.68359375 1.0878448 -0.95703125 1.6317596c-8.476517 0 -8.476517 0 -8.476517 0c0 2.991562 0 2.991562 0 2.991562c7.6562195 0 7.6562195 0 7.6562195 0c-0.13671875 0.2719574 -0.13671875 0.40794373 -0.13671875 0.6799011c0 0.2719574 0 0.5439224 0 0.8158798c0 0.9518585 0.13671875 2.0397034 0.410141 2.991562c0.2734375 0.9518585 0.68359375 1.7677383 1.3671875 2.7196045c-0.2734375 0.1359787 -0.2734375 0.1359787 -0.2734375 0.1359787c-2.1874847 -2.175682 -2.1874847 -2.175682 -2.1874847 -2.175682c-2.3242035 2.175682 -2.3242035 2.175682 -2.3242035 2.175682c-2.1875 -2.175682 -2.1875 -2.175682 -2.1875 -2.175682c-2.3242035 2.175682 -2.3242035 2.175682 -2.3242035 2.175682c-2.1874847 -2.175682 -2.1874847 -2.175682 -2.1874847 -2.175682l-2.1875 2.175682z" fill-rule="evenodd"/><path fill="#1e5a7c" d="m256.21088 -109.564445c1.5038757 0 1.5038757 0 1.5038757 0c0 -5.983124 0 -5.983124 0 -5.983124c-1.5038757 0 -1.5038757 0 -1.5038757 0l0 5.983124zm3.8280945 0c1.5039062 0 1.5039062 0 1.5039062 0c0 -5.983124 0 -5.983124 0 -5.983124c-1.5039062 0 -1.5039062 0 -1.5039062 0l0 5.983124zm-19.003815 -16.453583c17.910065 0 17.910065 0 17.910065 0c0 -2.8555832 0 -2.8555832 0 -2.8555832c-17.910065 0 -17.910065 0 -17.910065 0l0 2.8555832zm17.910065 20.804947c-2.1875 0 -3.8281097 -0.6799011 -5.3320007 -2.175682c-1.5039062 -1.3598022 -2.1874847 -3.1275406 -2.1874847 -5.167244c0 -2.0396957 0.6835785 -3.8074417 2.1874847 -5.3032227c1.503891 -1.495781 3.1445007 -2.175682 5.3320007 -2.175682c2.0507812 0 3.6914062 0.6799011 5.195282 2.175682c1.5039062 1.495781 2.1875 3.263527 2.1875 5.3032227c0 2.0397034 -0.68359375 3.8074417 -2.1875 5.167244c-1.5038757 1.495781 -3.1445007 2.175682 -5.195282 2.175682zm-22.421768 -1.495781c0 -25.156311 0 -25.156311 0 -25.156311c0 -0.81588745 0.2734375 -1.4957733 0.8203125 -2.1756744c0.546875 -0.54393005 1.3671722 -0.81588745 2.1874847 -0.81588745c20.781158 0 20.781158 0 20.781158 0c0.8203125 0 1.640625 0.2719574 2.1875 0.81588745c0.546875 0.6799011 0.820282 1.359787 0.820282 2.1756744c0 9.926544 0 9.926544 0 9.926544c-0.68356323 -0.40794373 -1.367157 -0.6799011 -2.1874695 -0.8158798c-0.68359375 -0.1359787 -1.5039062 -0.2719574 -2.1875 -0.2719574c-17.910065 0 -17.910065 0 -17.910065 0c0 2.9915543 0 2.9915543 0 2.9915543c10.527298 0 10.527298 0 10.527298 0c-0.41015625 0.40794373 -0.8203125 0.95186615 -1.2304688 1.3598022c-0.2734375 0.5439224 -0.68359375 1.0878448 -0.95703125 1.6317596c-8.339798 0 -8.339798 0 -8.339798 0c0 2.991562 0 2.991562 0 2.991562c7.5194855 0 7.5194855 0 7.5194855 0c0 0.27196503 -0.13670349 0.40794373 -0.13670349 0.6799011c0 0.27196503 0 0.5439224 0 0.8158798c0 0.9518585 0.13670349 2.0397034 0.410141 2.991562c0.2734375 0.9518585 0.68359375 1.7677383 1.3671875 2.7196045c-0.2734375 0.1359787 -0.2734375 0.1359787 -0.2734375 0.1359787c-2.1874847 -2.175682 -2.1874847 -2.175682 -2.1874847 -2.175682c-2.3242188 2.175682 -2.3242188 2.175682 -2.3242188 2.175682c-2.1874847 -2.175682 -2.1874847 -2.175682 -2.1874847 -2.175682c-2.1874847 2.175682 -2.1874847 2.175682 -2.1874847 2.175682c-2.3242188 -2.175682 -2.3242188 -2.175682 -2.3242188 -2.175682l-2.1874847 2.175682z" fill-rule="evenodd"/><path fill="#1e5a7c" d="m295.42737 -109.09985c6.2213135 -3.9241867 6.2213135 -3.9241867 6.2213135 -3.9241867c-6.2213135 -3.9241867 -6.2213135 -3.9241867 -6.2213135 -3.9241867l0 7.8483734zm-16.719818 -18.05127c18.66397 0 18.66397 0 18.66397 0c0 -3.1393433 0 -3.1393433 0 -3.1393433c-18.66397 0 -18.66397 0 -18.66397 0l0 3.1393433zm18.66397 21.975464c-2.1385803 0 -3.9855347 -0.78484344 -5.4436646 -2.2564087c-1.5553284 -1.5696793 -2.3329773 -3.43367 -2.3329773 -5.5919724c0 -2.1583023 0.7776489 -4.022293 2.3329773 -5.493866c1.4581299 -1.5696716 3.3050842 -2.354515 5.4436646 -2.354515c2.1385803 0 3.9855347 0.78484344 5.540863 2.354515c1.5553284 1.4715729 2.2357788 3.3355637 2.2357788 5.493866c0 2.1583023 -0.68045044 4.022293 -2.2357788 5.5919724c-1.5553284 1.4715652 -3.4022827 2.2564087 -5.540863 2.2564087zm-23.329956 -1.5696793c0 -26.684486 0 -26.684486 0 -26.684486c0 -0.7848358 0.38882446 -1.5696716 0.9720764 -2.1582947c0.58325195 -0.68673706 1.3609314 -0.9810486 2.1385803 -0.9810486c21.774628 0 21.774628 0 21.774628 0c0.8748779 0 1.6525269 0.29431152 2.2357788 0.9810486c0.58325195 0.58862305 0.8748779 1.3734589 0.8748779 2.1582947c0 10.497208 0 10.497208 0 10.497208c-0.68045044 -0.3924179 -1.4581299 -0.5886307 -2.2357788 -0.7848358c-0.77767944 -0.19621277 -1.5553284 -0.29431915 -2.4302063 -0.29431915c-18.66397 0 -18.66397 0 -18.66397 0c0 3.139351 0 3.139351 0 3.139351c11.081726 0 11.081726 0 11.081726 0c-0.48602295 0.4905243 -0.8748779 0.9810486 -1.2637024 1.4715729c-0.38882446 0.4905243 -0.68045044 1.079155 -0.9720764 1.667778c-8.845947 0 -8.845947 0 -8.845947 0c0 3.139351 0 3.139351 0 3.139351c7.9710693 0 7.9710693 0 7.9710693 0c-0.09719849 0.29431915 -0.09719849 0.5886307 -0.09719849 0.78484344c-0.097229004 0.29431152 -0.097229004 0.4905243 -0.097229004 0.7848358c0 1.079155 0.19442749 2.1583023 0.48605347 3.139351c0.29162598 1.079155 0.77767944 2.060196 1.3609009 2.9431381c-0.29159546 0.19621277 -0.29159546 0.19621277 -0.29159546 0.19621277c-2.3330078 -2.354515 -2.3330078 -2.354515 -2.3330078 -2.354515c-2.3330078 2.354515 -2.3330078 2.354515 -2.3330078 2.354515c-2.3329773 -2.354515 -2.3329773 -2.354515 -2.3329773 -2.354515c-2.3330078 2.354515 -2.3330078 2.354515 -2.3330078 2.354515c-2.3329773 -2.354515 -2.3329773 -2.354515 -2.3329773 -2.354515l-2.3330078 2.354515z" fill-rule="evenodd"/><path fill="#1e5a7c" d="m193.3287 -67.31539c2.597641 0 2.597641 0 2.597641 0c0 -1.903717 0 -1.903717 0 -1.903717c1.2304535 -0.1359787 2.3242035 -0.6799011 3.2812347 -1.3598022c0.82029724 -0.8158798 1.2304535 -1.903717 1.2304535 -3.2635193c0 -1.0878448 -0.2734375 -2.0397034 -0.82029724 -2.8555832c-0.68359375 -0.9518585 -1.7773438 -1.6317596 -3.5546722 -2.3116608c-1.5039062 -0.5439224 -2.597641 -0.9518585 -3.144516 -1.3598022c-0.546875 -0.2719574 -0.8203125 -0.8158798 -0.8203125 -1.495781c0 -0.6798935 0.13671875 -1.0878372 0.68359375 -1.495781c0.41015625 -0.4079361 1.0937347 -0.5439148 1.9140472 -0.5439148c0.8203125 0 1.5039062 0.1359787 1.9140625 0.5439148c0.410141 0.40794373 0.82029724 0.81588745 0.957016 1.495781c2.4609222 -1.0878372 2.4609222 -1.0878372 2.4609222 -1.0878372c-0.27342224 -0.8158798 -0.82029724 -1.495781 -1.503891 -2.175682c-0.8203125 -0.6799011 -1.640625 -1.0878372 -2.4609222 -1.0878372c0 -1.9037247 0 -1.9037247 0 -1.9037247c-2.597641 0 -2.597641 0 -2.597641 0c0 1.9037247 0 1.9037247 0 1.9037247c-1.3671875 0.2719574 -2.3242188 0.8158798 -3.0078125 1.6317596c-0.6835785 0.8158798 -0.957016 1.7677383 -0.957016 2.7195969c0 1.2238235 0.2734375 2.175682 0.957016 2.8555832c0.68359375 0.6799011 1.7773438 1.3598022 3.2812347 1.9037247c1.5039062 0.5439148 2.5976562 0.9518585 3.2812347 1.495781c0.546875 0.4079361 0.8203125 0.9518585 0.8203125 1.7677383c0 0.8158798 -0.2734375 1.3598022 -0.8203125 1.7677383c-0.54685974 0.40794373 -1.3671722 0.5439224 -2.1874847 0.5439224c-0.8203125 0 -1.503891 -0.2719574 -2.1874847 -0.8158798c-0.546875 -0.40794373 -1.09375 -1.2238235 -1.3671875 -2.175682c-2.4609222 0.9518585 -2.4609222 0.9518585 -2.4609222 0.9518585c0.41015625 1.0878448 0.95703125 2.0397034 1.6406097 2.8555832c0.68359375 0.6799011 1.640625 1.2238235 2.8710938 1.495781l0 1.903717zm1.3671722 4.4873466c-2.050766 0 -3.9648285 -0.40794373 -5.8788757 -1.2238197c-1.7773438 -0.6799011 -3.4179535 -1.767746 -4.6484222 -3.1275406c-1.3671722 -1.3598022 -2.4609222 -2.8555832 -3.2812347 -4.759308c-0.6835785 -1.7677383 -1.0937347 -3.6714554 -1.0937347 -5.7111588c0 -2.0397034 0.41015625 -4.079399 1.0937347 -5.847145c0.8203125 -1.7677383 1.9140625 -3.399498 3.2812347 -4.7593c1.2304688 -1.2238235 2.8710785 -2.3116608 4.6484222 -3.1275406c1.9140472 -0.8158798 3.8281097 -1.0878372 5.8788757 -1.0878372c2.050766 0 3.9648285 0.2719574 5.742157 1.0878372c1.9140625 0.8158798 3.4179535 1.903717 4.785141 3.1275406c1.3671722 1.3598022 2.4609222 2.991562 3.144516 4.7593c0.8203125 1.767746 1.2304688 3.8074417 1.2304688 5.847145c0 2.0397034 -0.41015625 3.9434204 -1.2304688 5.7111588c-0.68359375 1.9037247 -1.7773438 3.3995056 -3.144516 4.759308c-1.3671875 1.3597946 -2.8710785 2.4476395 -4.785141 3.1275406c-1.7773285 0.815876 -3.691391 1.2238197 -5.742157 1.2238197z" fill-rule="evenodd"/><path fill="#1e5a7c" d="m5.852292 -123.94886c7.7817955 0 7.7817955 0 7.7817955 0c0 -3.1310425 0 -3.1310425 0 -3.1310425c-7.7817955 0 -7.7817955 0 -7.7817955 0l0 3.1310425zm-3.112718 14.089699c-0.8754519 0 -1.6536314 -0.3913803 -2.237266 -0.97844696c-0.5836347 -0.5870743 -0.875452 -1.3698349 -0.875452 -2.1525955c0 -18.78627 0 -18.78627 0 -18.78627c0 -0.8806 0.2918173 -1.6633606 0.875452 -2.2504425c0.5836346 -0.58706665 1.3618141 -0.8806 2.237266 -0.8806c24.901745 0 24.901745 0 24.901745 0c0.5836334 0 1.2645416 0.19569397 1.7509041 0.58706665c0.5836334 0.39138794 0.972723 0.88061523 1.1672688 1.5655212c-0.48636246 -0.19567871 -0.87545204 -0.39137268 -1.4590874 -0.4892273c-0.48636055 -0.097839355 -0.972723 -0.097839355 -1.4590855 -0.097839355c-2.2372665 0 -3.9881706 0.68492126 -5.544529 2.2504425c-1.5563602 1.5655212 -2.2372665 3.4245758 -2.2372665 5.5771713c0 0.4892273 0 1.076294 0.09727287 1.5655212c0.097270966 0.5870743 0.2918167 1.076294 0.48636246 1.5655212c-6.8090715 0 -6.8090715 0 -6.8090715 0c0 1.5655212 0 1.5655212 0 1.5655212c-7.7817955 0 -7.7817955 0 -7.7817955 0c0 3.13105 0 3.13105 0 3.13105c7.7817955 0 7.7817955 0 7.7817955 0c0 1.5655212 0 1.5655212 0 1.5655212c-1.0699968 0.68491364 -1.7509041 1.5655212 -2.3345385 2.6418152c-0.58363533 1.0763016 -0.7781801 2.2504425 -0.7781801 3.6202698l-7.781795 0zm15.563591 1.5655212c0.38908958 0 0.77817917 -0.19568634 1.0699959 -0.48921967c0.2918167 -0.29354095 0.48636246 -0.68492126 0.48636246 -1.0763016c0 -0.4892273 -0.19454575 -0.8806076 -0.48636246 -1.1741409c-0.2918167 -0.29353333 -0.6809063 -0.3913803 -1.0699959 -0.3913803c-0.48636246 0 -0.87545204 0.097846985 -1.1672707 0.3913803c-0.2918167 0.29353333 -0.38908958 0.68491364 -0.38908958 1.1741409c0 0.3913803 0.09727287 0.7827606 0.38908958 1.0763016c0.29181862 0.29353333 0.6809082 0.48921967 1.1672707 0.48921967zm9.338154 -15.65522c0.38908958 0 0.77817917 -0.19569397 1.0699959 -0.4892273c0.29181862 -0.29353333 0.48636246 -0.68491364 0.48636246 -1.076294c0 -0.4892273 -0.19454384 -0.8806076 -0.48636246 -1.1741409c-0.2918167 -0.29354095 -0.6809063 -0.3913803 -1.0699959 -0.3913803c-0.48636246 0 -0.87545204 0.097839355 -1.1672688 0.3913803c-0.29181862 0.29353333 -0.3890915 0.68491364 -0.3890915 1.1741409c0 0.3913803 0.09727287 0.7827606 0.3890915 1.076294c0.2918167 0.29353333 0.6809063 0.4892273 1.1672688 0.4892273zm-9.338154 18.78627c-1.3618145 0 -2.4318123 -0.4892273 -3.3072643 -1.3698349c-0.97272396 -0.9784546 -1.3618135 -2.0547485 -1.3618135 -3.3267365c0 -1.076294 0.2918167 -1.9569016 0.87545204 -2.7396622c0.5836344 -0.8806076 1.2645416 -1.3698349 2.2372656 -1.7612152c0 -4.8922577 0 -4.8922577 0 -4.8922577c9.338154 0 9.338154 0 9.338154 0c0 -1.8590546 0 -1.8590546 0 -1.8590546c-0.972723 -0.29353333 -1.6536312 -0.8806076 -2.2372646 -1.6633682c-0.58363533 -0.8806076 -0.87545204 -1.7612152 -0.87545204 -2.7396622c0 -1.3698349 0.38908958 -2.4461288 1.3618145 -3.3267288c0.87545013 -0.9784546 1.9454479 -1.3698425 3.3072624 -1.3698425c1.2645416 0 2.3345375 0.39138794 3.3072624 1.3698425c0.87545204 0.8806 1.3618126 1.9568939 1.3618126 3.3267288c0 0.97844696 -0.2918167 1.8590546 -0.87545013 2.7396622c-0.58363533 0.7827606 -1.3618145 1.3698349 -2.2372665 1.6633682c0 4.9901047 0 4.9901047 0 4.9901047c-9.338154 0 -9.338154 0 -9.338154 0c0 1.7612076 0 1.7612076 0 1.7612076c0.87545204 0.3913803 1.6536312 0.8806076 2.2372665 1.7612152c0.5836334 0.7827606 0.87545204 1.6633682 0.87545204 2.7396622c0 1.2719879 -0.48636246 2.3482819 -1.3618145 3.3267365c-0.9727249 0.8806076 -2.0427208 1.3698349 -3.3072624 1.3698349z" fill-rule="evenodd"/><path fill="#1e5a7c" d="m140.85161 -67.02044c-2.1385803 0 -3.9855347 -0.7848358 -5.540863 -2.3545074c-1.4581299 -1.4715729 -2.235794 -3.3355637 -2.235794 -5.493866c0 -2.2564087 0.7776642 -4.022293 2.235794 -5.5919724c1.5553284 -1.5696716 3.4022827 -2.2564087 5.540863 -2.2564087c2.1385803 0 3.9855347 0.68673706 5.540863 2.2564087c1.4581146 1.5696793 2.2357788 3.3355637 2.2357788 5.5919724c0 2.1583023 -0.7776642 4.022293 -2.2357788 5.493866c-1.5553284 1.5696716 -3.4022827 2.3545074 -5.540863 2.3545074zm-17.108635 -21.975456c15.553307 0 15.553307 0 15.553307 0c0 -3.139351 0 -3.139351 0 -3.139351c-15.553307 0 -15.553307 0 -15.553307 0l0 3.139351zm7.2906113 18.836105c-10.401276 0 -10.401276 0 -10.401276 0c-0.8748703 0 -1.5553284 -0.3924179 -2.2357864 -0.9810486c-0.5832443 -0.58862305 -0.8748703 -1.3734589 -0.8748703 -2.1583023c0 -21.975456 0 -21.975456 0 -21.975456c0 -0.8829422 0.29162598 -1.667778 0.8748703 -2.2564087c0.68045807 -0.5886307 1.3609161 -0.8829422 2.2357864 -0.8829422c21.774628 0 21.774628 0 21.774628 0c0.8748627 0 1.5553284 0.29431152 2.2357788 0.8829422c0.58325195 0.5886307 0.8748779 1.3734665 0.8748779 2.2564087c0 10.497208 0 10.497208 0 10.497208c-0.7776642 -0.3924179 -1.5553284 -0.68673706 -2.235794 -0.8829422c-0.7776642 -0.098106384 -1.6525269 -0.19621277 -2.430191 -0.19621277c-0.29162598 0 -0.58325195 0 -0.7776642 0c-0.29162598 0 -0.48605347 0 -0.7776642 0.098106384c0 -0.098106384 0 -0.098106384 0 -0.098106384c-15.553307 0 -15.553307 0 -15.553307 0c0 3.139351 0 3.139351 0 3.139351c9.52639 0 9.52639 0 9.52639 0c-0.4860382 0.3924179 -0.8748627 0.8829422 -1.2637024 1.3734665c-0.38882446 0.5886307 -0.68045044 1.079155 -0.9720764 1.7658844c-7.2906113 0 -7.2906113 0 -7.2906113 0c0 3.139351 0 3.139351 0 3.139351c6.3185196 0 6.3185196 0 6.3185196 0c0 0.19621277 -0.09719849 0.4905243 -0.09719849 0.68673706c0 0.29431152 0 0.58862305 0 0.8829422c0 0.7848358 0.09719849 1.667778 0.19441223 2.354515c0.19441223 0.7848358 0.4860382 1.5696716 0.8748779 2.3545074zm9.818024 -4.7090225c0.68045044 0 1.1664886 -0.29431915 1.6525269 -0.68673706c0.48605347 -0.4905243 0.6804657 -1.0791473 0.6804657 -1.667778c0 -0.68673706 -0.19441223 -1.2753601 -0.6804657 -1.667778c-0.4860382 -0.4905243 -0.9720764 -0.68673706 -1.6525269 -0.68673706c-0.6804657 0 -1.1665039 0.19621277 -1.6525421 0.68673706c-0.4860382 0.3924179 -0.68045044 0.98104095 -0.68045044 1.667778c0 0.5886307 0.19441223 1.1772537 0.68045044 1.667778c0.4860382 0.3924179 0.9720764 0.68673706 1.6525421 0.68673706zm0 4.7090225c0.7776642 0 1.4581146 -0.19620514 2.1385803 -0.58862305c0.68045044 -0.39242554 1.2637024 -0.8829422 1.7497406 -1.5696793c-0.68045044 -0.29431152 -1.2637024 -0.5886307 -1.9441681 -0.7848358c-0.5832367 -0.19621277 -1.2637024 -0.19621277 -1.9441528 -0.19621277c-0.6804657 0 -1.3609161 0 -1.9441681 0.19621277c-0.68045044 0.19620514 -1.3609161 0.4905243 -1.9441681 0.7848358c0.48605347 0.68673706 1.0692902 1.1772537 1.7497559 1.5696793c0.58325195 0.3924179 1.3609161 0.58862305 2.1385803 0.58862305z" fill-rule="evenodd"/><path fill="#2d85b9" d="m176.5901 -147.44258c10.028961 -10.082245 10.028961 -10.082245 10.028961 -10.082245c-1.9286499 -2.132782 -1.9286499 -2.132782 -1.9286499 -2.132782c-8.100311 8.33725 -8.100311 8.33725 -8.100311 8.33725c-4.0501556 -4.265564 -4.0501556 -4.265564 -4.0501556 -4.265564c-2.1215057 2.132782 -2.1215057 2.132782 -2.1215057 2.132782l6.1716614 6.010559zm-8.100311 6.980011c-0.77145386 0 -1.542923 -0.19389343 -1.9286499 -0.7755585c-0.578598 -0.58166504 -0.96432495 -1.3572235 -0.96432495 -2.132782c0 -20.164474 0 -20.164474 0 -20.164474c0 -0.7755585 0.38572693 -1.551117 0.96432495 -2.132782c0.38572693 -0.58166504 1.157196 -0.7755585 1.9286499 -0.7755585c20.057907 0 20.057907 0 20.057907 0c0.7714691 0 1.542923 0.19389343 2.121521 0.7755585c0.57858276 0.58166504 0.77145386 1.3572235 0.77145386 2.132782c0 20.164474 0 20.164474 0 20.164474c0 0.7755585 -0.1928711 1.551117 -0.77145386 2.132782c-0.578598 0.58166504 -1.3500519 0.7755585 -2.121521 0.7755585l-20.057907 0z" fill-rule="evenodd"/><path fill="#2d85b9" d="m265.98904 -146.76898c10.219666 -10.268433 10.219666 -10.268433 10.219666 -10.268433c-2.1210632 -1.937439 -2.1210632 -1.937439 -2.1210632 -1.937439c-8.098602 8.137253 -8.098602 8.137253 -8.098602 8.137253c-4.049286 -4.068634 -4.049286 -4.068634 -4.049286 -4.068634c-2.1210632 1.9374542 -2.1210632 1.9374542 -2.1210632 1.9374542l6.170349 6.1997986zm1.9282532 7.749771c-1.9282532 0 -3.8564758 -0.3874817 -5.5918884 -1.1624603c-1.7354126 -0.77497864 -3.2780151 -1.7436981 -4.4349365 -3.0999146c-1.3497925 -1.1624603 -2.3139038 -2.7124176 -3.0851898 -4.4561157c-0.77130127 -1.7436981 -1.1569519 -3.681137 -1.1569519 -5.618576c0 -2.1311798 0.38565063 -3.874878 1.1569519 -5.812317c0.771286 -1.7436981 1.7353973 -3.2936554 3.0851898 -4.4561157c1.1569214 -1.3562164 2.699524 -2.324936 4.4349365 -3.0999146c1.7354126 -0.7749634 3.6636353 -1.1624603 5.5918884 -1.1624603c2.1210632 0 3.8564758 0.38749695 5.5918884 1.1624603c1.9282227 0.77497864 3.2779846 1.7436981 4.6277466 3.0999146c1.349762 1.1624603 2.3139038 2.7124176 3.0851746 4.4561157c0.77130127 1.937439 1.1569519 3.681137 1.1569519 5.812317c0 1.937439 -0.38565063 3.874878 -1.1569519 5.618576c-0.77127075 1.7436981 -1.7354126 3.2936554 -3.0851746 4.4561157c-1.349762 1.3562164 -2.699524 2.324936 -4.6277466 3.0999146c-1.7354126 0.77497864 -3.4708252 1.1624603 -5.5918884 1.1624603z" fill-rule="evenodd"/><path fill="#ffffff" d="m34.28728 6.1274714l31.711727 55.547615l31.711731 0l-31.999863 -55.547615zm-4.254221 6.8368917l-30.016823 52.990173l15.576206 27.91021l30.304958 -53.26297l-15.86434 -27.637413zm9.067759 52.990173l-15.86434 27.91021l60.881096 0l15.864342 -27.91021z" fill-rule="evenodd"/></g></svg>